<?xml version="1.0" encoding="UTF-8"?>
<svg width="35px" height="35px" viewBox="0 0 35 35" version="1.1" xmlns="http://www.w3.org/2000/svg" xmlns:xlink="http://www.w3.org/1999/xlink">
    <!-- Generator: Sketch 47 (45396) - http://www.bohemiancoding.com/sketch -->
    <title>Avatar</title>
    <desc>Created with Sketch.</desc>
    <defs>
        <circle id="path-1" cx="16.5" cy="16.5" r="16.5"></circle>
    </defs>
    <g id="Search" stroke="none" stroke-width="1" fill="none" fill-rule="evenodd">
        <g id="Search-Desktop-HD" transform="translate(-1278.000000, -67.000000)">
            <g id="Upper">
                <g id="Navigation---After-Sign-In" transform="translate(80.000000, 37.000000)">
                    <g id="Menu" transform="translate(822.000000, 31.000000)">
                        <g id="Avatar" transform="translate(377.000000, 0.000000)">
                            <g id="user-silhouette-2">
                                <mask id="mask-2" fill="white">
                                    <use xlink:href="#path-1"></use>
                                </mask>
                                <use id="Oval-4" stroke="#2B667F" stroke-width="2" xlink:href="#path-1"></use>
                                <path d="M16.47047,19.3801352 C20.0582639,19.3801352 22.9670794,15.9756824 22.9670794,11.7761137 C22.9670794,5.95246352 20.0584056,4.17216309 16.47047,4.17216309 C12.8823927,4.17216309 9.97386052,5.95246352 9.97386052,11.7761137 C9.97393133,15.9756824 12.8824635,19.3801352 16.47047,19.3801352 Z" id="Shape" fill="#2B667F" fill-rule="nonzero" mask="url(#mask-2)"></path>
                                <path d="M30.8163348,30.5722339 L27.5387124,23.1888026 C27.3887961,22.8509421 27.1254335,22.5707253 26.7976288,22.4000601 L21.7109549,19.7521288 C21.5987833,19.6938476 21.4629592,19.7051781 21.362118,19.7815172 C19.9234313,20.8696674 18.2318627,21.4448305 16.47047,21.4448305 C14.708794,21.4448305 13.017367,20.8696674 11.5786803,19.7815172 C11.4775558,19.7051781 11.3417318,19.6938476 11.2295601,19.7521288 L6.14324034,22.4000601 C5.81529399,22.5707253 5.55221459,22.8508004 5.40215665,23.1888026 L2.12453433,30.5722339 C1.89856223,31.0812554 1.94487554,31.6636416 2.24846137,32.1305279 C2.55190558,32.5973433 3.06545923,32.8759313 3.62228112,32.8759313 L29.3184464,32.8759313 C29.8752682,32.8759313 30.3889635,32.5972017 30.6924077,32.1304571 C30.9958519,31.6636416 31.0423069,31.0810429 30.8163348,30.5722339 Z" id="Shape" fill="#2B667F" fill-rule="nonzero" mask="url(#mask-2)"></path>
                            </g>
                        </g>
                    </g>
                </g>
            </g>
        </g>
    </g>
</svg>